<?xml version="1.0" encoding="UTF-8"?>
<svg xmlns="http://www.w3.org/2000/svg" width="800" height="486" viewBox="0 0 800 486">
<defs>
<marker id="arrow" viewBox="0 0 10 10" refX="9" refY="5" markerWidth="8" markerHeight="8" orient="auto-start-reverse">
<path d="M 0 0 L 10 5 L 0 10 z" fill="#444"/>
</marker>
</defs>
<rect width="100%" height="100%" fill="white"/>
<text x="400.0" y="14" text-anchor="middle" font-family="DejaVu Sans, Arial, sans-serif" font-size="13" font-weight="bold" fill="#333">Shared encoder</text>
<g stroke="black" stroke-width="1" fill="none">
<line x1="352.0" y1="92.0" x2="356.0" y2="92.0" stroke="black"/>
<line x1="352.0" y1="182.0" x2="356.0" y2="182.0" stroke="black"/>
<line x1="328.0" y1="206.0" x2="332.0" y2="206.0" stroke="black"/>
<line x1="328.0" y1="116.0" x2="332.0" y2="116.0" stroke="black"/>
<line x1="366.0" y1="92.0" x2="364.0" y2="119.0" stroke="black"/>
<line x1="366.0" y1="182.0" x2="364.0" y2="167.0" stroke="black"/>
<line x1="342.0" y1="206.0" x2="352.0" y2="179.0" stroke="black"/>
<line x1="342.0" y1="116.0" x2="352.0" y2="131.0" stroke="black"/>
<line x1="374.0" y1="119.0" x2="378.0" y2="119.0" stroke="black"/>
<line x1="374.0" y1="167.0" x2="378.0" y2="167.0" stroke="black"/>
<line x1="362.0" y1="179.0" x2="366.0" y2="179.0" stroke="black"/>
<line x1="362.0" y1="131.0" x2="366.0" y2="131.0" stroke="black"/>
<line x1="388.0" y1="119.0" x2="392.0" y2="119.0" stroke="black"/>
<line x1="388.0" y1="167.0" x2="392.0" y2="167.0" stroke="black"/>
<line x1="376.0" y1="179.0" x2="380.0" y2="179.0" stroke="black"/>
<line x1="376.0" y1="131.0" x2="380.0" y2="131.0" stroke="black"/>
<line x1="402.0" y1="119.0" x2="403.0" y2="134.0" stroke="black"/>
<line x1="402.0" y1="167.0" x2="403.0" y2="158.0" stroke="black"/>
<line x1="390.0" y1="179.0" x2="397.0" y2="164.0" stroke="black"/>
<line x1="390.0" y1="131.0" x2="397.0" y2="140.0" stroke="black"/>
<line x1="413.0" y1="134.0" x2="417.0" y2="134.0" stroke="black"/>
<line x1="413.0" y1="158.0" x2="417.0" y2="158.0" stroke="black"/>
<line x1="407.0" y1="164.0" x2="411.0" y2="164.0" stroke="black"/>
<line x1="407.0" y1="140.0" x2="411.0" y2="140.0" stroke="black"/>
<line x1="427.0" y1="134.0" x2="431.0" y2="134.0" stroke="black"/>
<line x1="427.0" y1="158.0" x2="431.0" y2="158.0" stroke="black"/>
<line x1="421.0" y1="164.0" x2="425.0" y2="164.0" stroke="black"/>
<line x1="421.0" y1="140.0" x2="425.0" y2="140.0" stroke="black"/>
<line x1="441.0" y1="134.0" x2="444.0" y2="141.5" stroke="black"/>
<line x1="441.0" y1="158.0" x2="444.0" y2="153.5" stroke="black"/>
<line x1="435.0" y1="164.0" x2="441.0" y2="156.5" stroke="black"/>
<line x1="435.0" y1="140.0" x2="441.0" y2="144.5" stroke="black"/>
<line x1="454.0" y1="141.5" x2="458.0" y2="141.5" stroke="black"/>
<line x1="454.0" y1="153.5" x2="458.0" y2="153.5" stroke="black"/>
<line x1="451.0" y1="156.5" x2="455.0" y2="156.5" stroke="black"/>
<line x1="451.0" y1="144.5" x2="455.0" y2="144.5" stroke="black"/>
<line x1="468.0" y1="141.5" x2="472.0" y2="141.5" stroke="black"/>
<line x1="468.0" y1="153.5" x2="472.0" y2="153.5" stroke="black"/>
<line x1="465.0" y1="156.5" x2="469.0" y2="156.5" stroke="black"/>
<line x1="465.0" y1="144.5" x2="469.0" y2="144.5" stroke="black"/>
</g>
<g stroke="black" stroke-width="1">
<polyline points="342.0,92.0 342.0,182.0 318.0,206.0" fill="none" stroke="black"/>
<line x1="342.0" y1="182.0" x2="352.0" y2="182.0" stroke="black"/>
<polygon points="318.0,116.0 342.0,92.0 352.0,92.0 328.0,116.0" fill="rgb(245,218,171)" stroke="black"/>
<polygon points="352.0,92.0 328.0,116.0 328.0,206.0 352.0,182.0" fill="rgb(235,208,161)" stroke="black"/>
<rect x="318.0" y="116.0" width="10.0" height="90.0" fill="#FFE4B5" stroke="black"/>
<polyline points="356.0,92.0 356.0,182.0 332.0,206.0" fill="none" stroke="black"/>
<line x1="356.0" y1="182.0" x2="366.0" y2="182.0" stroke="black"/>
<polygon points="332.0,116.0 356.0,92.0 366.0,92.0 342.0,116.0" fill="rgb(245,218,171)" stroke="black"/>
<polygon points="366.0,92.0 342.0,116.0 342.0,206.0 366.0,182.0" fill="rgb(235,208,161)" stroke="black"/>
<rect x="332.0" y="116.0" width="10.0" height="90.0" fill="#FFE4B5" stroke="black"/>
<polyline points="364.0,119.0 364.0,167.0 352.0,179.0" fill="none" stroke="black"/>
<line x1="364.0" y1="167.0" x2="374.0" y2="167.0" stroke="black"/>
<polygon points="352.0,131.0 364.0,119.0 374.0,119.0 362.0,131.0" fill="rgb(163,206,220)" stroke="black"/>
<polygon points="374.0,119.0 362.0,131.0 362.0,179.0 374.0,167.0" fill="rgb(153,196,210)" stroke="black"/>
<rect x="352.0" y="131.0" width="10.0" height="48.0" fill="#ADD8E6" stroke="black"/>
<polyline points="378.0,119.0 378.0,167.0 366.0,179.0" fill="none" stroke="black"/>
<line x1="378.0" y1="167.0" x2="388.0" y2="167.0" stroke="black"/>
<polygon points="366.0,131.0 378.0,119.0 388.0,119.0 376.0,131.0" fill="rgb(245,218,171)" stroke="black"/>
<polygon points="388.0,119.0 376.0,131.0 376.0,179.0 388.0,167.0" fill="rgb(235,208,161)" stroke="black"/>
<rect x="366.0" y="131.0" width="10.0" height="48.0" fill="#FFE4B5" stroke="black"/>
<polyline points="392.0,119.0 392.0,167.0 380.0,179.0" fill="none" stroke="black"/>
<line x1="392.0" y1="167.0" x2="402.0" y2="167.0" stroke="black"/>
<polygon points="380.0,131.0 392.0,119.0 402.0,119.0 390.0,131.0" fill="rgb(245,218,171)" stroke="black"/>
<polygon points="402.0,119.0 390.0,131.0 390.0,179.0 402.0,167.0" fill="rgb(235,208,161)" stroke="black"/>
<rect x="380.0" y="131.0" width="10.0" height="48.0" fill="#FFE4B5" stroke="black"/>
<polyline points="403.0,134.0 403.0,158.0 397.0,164.0" fill="none" stroke="black"/>
<line x1="403.0" y1="158.0" x2="413.0" y2="158.0" stroke="black"/>
<polygon points="397.0,140.0 403.0,134.0 413.0,134.0 407.0,140.0" fill="rgb(163,206,220)" stroke="black"/>
<polygon points="413.0,134.0 407.0,140.0 407.0,164.0 413.0,158.0" fill="rgb(153,196,210)" stroke="black"/>
<rect x="397.0" y="140.0" width="10.0" height="24.0" fill="#ADD8E6" stroke="black"/>
<polyline points="417.0,134.0 417.0,158.0 411.0,164.0" fill="none" stroke="black"/>
<line x1="417.0" y1="158.0" x2="427.0" y2="158.0" stroke="black"/>
<polygon points="411.0,140.0 417.0,134.0 427.0,134.0 421.0,140.0" fill="rgb(245,218,171)" stroke="black"/>
<polygon points="427.0,134.0 421.0,140.0 421.0,164.0 427.0,158.0" fill="rgb(235,208,161)" stroke="black"/>
<rect x="411.0" y="140.0" width="10.0" height="24.0" fill="#FFE4B5" stroke="black"/>
<polyline points="431.0,134.0 431.0,158.0 425.0,164.0" fill="none" stroke="black"/>
<line x1="431.0" y1="158.0" x2="441.0" y2="158.0" stroke="black"/>
<polygon points="425.0,140.0 431.0,134.0 441.0,134.0 435.0,140.0" fill="rgb(245,218,171)" stroke="black"/>
<polygon points="441.0,134.0 435.0,140.0 435.0,164.0 441.0,158.0" fill="rgb(235,208,161)" stroke="black"/>
<rect x="425.0" y="140.0" width="10.0" height="24.0" fill="#FFE4B5" stroke="black"/>
<polyline points="444.0,141.5 444.0,153.5 441.0,156.5" fill="none" stroke="black"/>
<line x1="444.0" y1="153.5" x2="454.0" y2="153.5" stroke="black"/>
<polygon points="441.0,144.5 444.0,141.5 454.0,141.5 451.0,144.5" fill="rgb(163,206,220)" stroke="black"/>
<polygon points="454.0,141.5 451.0,144.5 451.0,156.5 454.0,153.5" fill="rgb(153,196,210)" stroke="black"/>
<rect x="441.0" y="144.5" width="10.0" height="12.0" fill="#ADD8E6" stroke="black"/>
<polyline points="458.0,141.5 458.0,153.5 455.0,156.5" fill="none" stroke="black"/>
<line x1="458.0" y1="153.5" x2="468.0" y2="153.5" stroke="black"/>
<polygon points="455.0,144.5 458.0,141.5 468.0,141.5 465.0,144.5" fill="rgb(245,218,171)" stroke="black"/>
<polygon points="468.0,141.5 465.0,144.5 465.0,156.5 468.0,153.5" fill="rgb(235,208,161)" stroke="black"/>
<rect x="455.0" y="144.5" width="10.0" height="12.0" fill="#FFE4B5" stroke="black"/>
<polyline points="472.0,141.5 472.0,153.5 469.0,156.5" fill="none" stroke="black"/>
<line x1="472.0" y1="153.5" x2="482.0" y2="153.5" stroke="black"/>
<polygon points="469.0,144.5 472.0,141.5 482.0,141.5 479.0,144.5" fill="rgb(245,218,171)" stroke="black"/>
<polygon points="482.0,141.5 479.0,144.5 479.0,156.5 482.0,153.5" fill="rgb(235,208,161)" stroke="black"/>
<rect x="469.0" y="144.5" width="10.0" height="12.0" fill="#FFE4B5" stroke="black"/>
</g>
<g font-family="DejaVu Sans, Arial, sans-serif" font-size="11" fill="black">
<text x="323.0" y="92" text-anchor="start" transform="rotate(-90,323.0,92)">240×320×64</text>
<text x="337.0" y="92" text-anchor="start" transform="rotate(-90,337.0,92)">240×320×64</text>
<text x="357.0" y="92" text-anchor="start" transform="rotate(-90,357.0,92)">120×160×64</text>
<text x="371.0" y="92" text-anchor="start" transform="rotate(-90,371.0,92)">120×160×64</text>
<text x="385.0" y="92" text-anchor="start" transform="rotate(-90,385.0,92)">120×160×64</text>
<text x="402.0" y="92" text-anchor="start" transform="rotate(-90,402.0,92)">60×80×64</text>
<text x="416.0" y="92" text-anchor="start" transform="rotate(-90,416.0,92)">60×80×128</text>
<text x="430.0" y="92" text-anchor="start" transform="rotate(-90,430.0,92)">60×80×128</text>
<text x="446.0" y="92" text-anchor="start" transform="rotate(-90,446.0,92)">30×40×128</text>
<text x="460.0" y="92" text-anchor="start" transform="rotate(-90,460.0,92)">30×40×128</text>
<text x="474.0" y="92" text-anchor="start" transform="rotate(-90,474.0,92)">30×40×128</text>
</g>
<text x="238.0" y="280" text-anchor="middle" font-family="DejaVu Sans, Arial, sans-serif" font-size="13" font-weight="bold" fill="#333">Detector head</text>
<g stroke="black" stroke-width="1" fill="none">
<line x1="250.0" y1="358.0" x2="254.0" y2="358.0" stroke="black"/>
<line x1="250.0" y1="390.0" x2="254.0" y2="390.0" stroke="black"/>
<line x1="242.0" y1="398.0" x2="246.0" y2="398.0" stroke="black"/>
<line x1="242.0" y1="366.0" x2="246.0" y2="366.0" stroke="black"/>
</g>
<g stroke="black" stroke-width="1">
<polyline points="212.0,358.0 212.0,390.0 204.0,398.0" fill="none" stroke="black"/>
<line x1="212.0" y1="390.0" x2="250.0" y2="390.0" stroke="black"/>
<polygon points="204.0,366.0 212.0,358.0 250.0,358.0 242.0,366.0" fill="rgb(245,218,171)" stroke="black"/>
<polygon points="250.0,358.0 242.0,366.0 242.0,398.0 250.0,390.0" fill="rgb(235,208,161)" stroke="black"/>
<rect x="204.0" y="366.0" width="38.0" height="32.0" fill="#FFE4B5" stroke="black"/>
<polyline points="254.0,358.0 254.0,390.0 246.0,398.0" fill="none" stroke="black"/>
<line x1="254.0" y1="390.0" x2="272.0" y2="390.0" stroke="black"/>
<polygon points="246.0,366.0 254.0,358.0 272.0,358.0 264.0,366.0" fill="rgb(245,218,171)" stroke="black"/>
<polygon points="272.0,358.0 264.0,366.0 264.0,398.0 272.0,390.0" fill="rgb(235,208,161)" stroke="black"/>
<rect x="246.0" y="366.0" width="18.0" height="32.0" fill="#FFE4B5" stroke="black"/>
</g>
<g font-family="DejaVu Sans, Arial, sans-serif" font-size="11" fill="black">
<text x="223.0" y="358" text-anchor="start" transform="rotate(-90,223.0,358)">30×40×256</text>
<text x="255.0" y="358" text-anchor="start" transform="rotate(-90,255.0,358)">30×40×65</text>
</g>
<text x="552.0" y="280" text-anchor="middle" font-family="DejaVu Sans, Arial, sans-serif" font-size="13" font-weight="bold" fill="#333">Descriptor head</text>
<g stroke="black" stroke-width="1" fill="none">
<line x1="554.0" y1="358.0" x2="558.0" y2="358.0" stroke="black"/>
<line x1="554.0" y1="390.0" x2="558.0" y2="390.0" stroke="black"/>
<line x1="546.0" y1="398.0" x2="550.0" y2="398.0" stroke="black"/>
<line x1="546.0" y1="366.0" x2="550.0" y2="366.0" stroke="black"/>
</g>
<g stroke="black" stroke-width="1">
<polyline points="516.0,358.0 516.0,390.0 508.0,398.0" fill="none" stroke="black"/>
<line x1="516.0" y1="390.0" x2="554.0" y2="390.0" stroke="black"/>
<polygon points="508.0,366.0 516.0,358.0 554.0,358.0 546.0,366.0" fill="rgb(245,218,171)" stroke="black"/>
<polygon points="554.0,358.0 546.0,366.0 546.0,398.0 554.0,390.0" fill="rgb(235,208,161)" stroke="black"/>
<rect x="508.0" y="366.0" width="38.0" height="32.0" fill="#FFE4B5" stroke="black"/>
<polyline points="558.0,358.0 558.0,390.0 550.0,398.0" fill="none" stroke="black"/>
<line x1="558.0" y1="390.0" x2="596.0" y2="390.0" stroke="black"/>
<polygon points="550.0,366.0 558.0,358.0 596.0,358.0 588.0,366.0" fill="rgb(245,218,171)" stroke="black"/>
<polygon points="596.0,358.0 588.0,366.0 588.0,398.0 596.0,390.0" fill="rgb(235,208,161)" stroke="black"/>
<rect x="550.0" y="366.0" width="38.0" height="32.0" fill="#FFE4B5" stroke="black"/>
</g>
<g font-family="DejaVu Sans, Arial, sans-serif" font-size="11" fill="black">
<text x="527.0" y="358" text-anchor="start" transform="rotate(-90,527.0,358)">30×40×256</text>
<text x="569.0" y="358" text-anchor="start" transform="rotate(-90,569.0,358)">30×40×256</text>
</g>
<text x="238.0" y="420" text-anchor="middle" font-family="DejaVu Sans, sans-serif" font-size="11" fill="#555" font-style="italic">softmax → drop dustbin → depth-to-space → H×W heatmap</text>
<text x="552.0" y="420" text-anchor="middle" font-family="DejaVu Sans, sans-serif" font-size="11" fill="#555" font-style="italic">bicubic upsample → L2-normalize</text>
<line x1="479.0" y1="150.5" x2="200.0" y2="382.0" stroke="#444" stroke-width="1.5" marker-end="url(#arrow)"/>
<line x1="479.0" y1="150.5" x2="504.0" y2="382.0" stroke="#444" stroke-width="1.5" marker-end="url(#arrow)"/>
<g font-family="DejaVu Sans, Arial, sans-serif" font-size="11" fill="black">
<rect x="10" y="462" width="12" height="12" fill="#FFE4B5" stroke="black"/>
<text x="26" y="472">Conv2d</text>
<rect x="82" y="462" width="12" height="12" fill="#ADD8E6" stroke="black"/>
<text x="98" y="472">MaxPool2d</text>
</g>
</svg>