<?xml version="1.0" encoding="utf-8" standalone="no"?>
<!DOCTYPE svg PUBLIC "-//W3C//DTD SVG 1.1//EN"
  "http://www.w3.org/Graphics/SVG/1.1/DTD/svg11.dtd">
<svg xmlns:xlink="http://www.w3.org/1999/xlink" width="460.8pt" height="345.6pt" viewBox="0 0 460.8 345.6" xmlns="http://www.w3.org/2000/svg" version="1.1">
 <metadata>
  <rdf:RDF xmlns:dc="http://purl.org/dc/elements/1.1/" xmlns:cc="http://creativecommons.org/ns#" xmlns:rdf="http://www.w3.org/1999/02/22-rdf-syntax-ns#">
   <cc:Work>
    <dc:type rdf:resource="http://purl.org/dc/dcmitype/StillImage"/>
    <dc:date>2024-02-11T18:02:45.722496</dc:date>
    <dc:format>image/svg+xml</dc:format>
    <dc:creator>
     <cc:Agent>
      <dc:title>Matplotlib v3.5.1, https://matplotlib.org/</dc:title>
     </cc:Agent>
    </dc:creator>
   </cc:Work>
  </rdf:RDF>
 </metadata>
 <defs>
  <style type="text/css">*{stroke-linejoin: round; stroke-linecap: butt}</style>
 </defs>
 <g id="figure_1">
  <g id="patch_1">
   <path d="M 0 345.6 
L 460.8 345.6 
L 460.8 0 
L 0 0 
z
" style="fill: #ffffff"/>
  </g>
  <g id="patch_2">
   <path d="M 103.104 307.584 
L 369.216 307.584 
L 369.216 41.472 
L 103.104 41.472 
z
" style="fill: #ffffff"/>
  </g>
  <g id="pane3d_1">
   <g id="patch_3">
    <path d="M 138.770941 216.301446 
L 293.696014 203.989395 
L 294.826793 87.368684 
L 136.587814 96.305227 
" style="fill: #f2f2f2; opacity: 0.5; stroke: #f2f2f2; stroke-linejoin: miter"/>
   </g>
  </g>
  <g id="pane3d_2">
   <g id="patch_4">
    <path d="M 293.696014 203.989395 
L 348.912333 249.889918 
L 351.467512 120.743367 
L 294.826793 87.368684 
" style="fill: #e6e6e6; opacity: 0.5; stroke: #e6e6e6; stroke-linejoin: miter"/>
   </g>
  </g>
  <g id="pane3d_3">
   <g id="patch_5">
    <path d="M 138.770941 216.301446 
L 177.616585 265.221221 
L 348.912333 249.889918 
L 293.696014 203.989395 
" style="fill: #ececec; opacity: 0.5; stroke: #ececec; stroke-linejoin: miter"/>
   </g>
  </g>
  <g id="axis3d_1">
   <g id="line2d_1">
    <path d="M 138.770941 216.301446 
L 177.616585 265.221221 
" style="fill: none; stroke: #000000; stroke-width: 0.8; stroke-linecap: square"/>
   </g>
   <g id="text_1">
    <!-- X -->
    <g transform="translate(123.672709 267.0268)scale(0.1 -0.1)">
     <defs>
      <path id="DejaVuSans-58" d="M 403 4666 
L 1081 4666 
L 2241 2931 
L 3406 4666 
L 4084 4666 
L 2584 2425 
L 4184 0 
L 3506 0 
L 2194 1984 
L 872 0 
L 191 0 
L 1856 2491 
L 403 4666 
z
" transform="scale(0.015625)"/>
     </defs>
     <use xlink:href="#DejaVuSans-58"/>
    </g>
   </g>
   <g id="Line3DCollection_1">
    <path d="M 139.467419 217.178546 
L 294.689405 204.815187 
L 295.84342 87.967715 
" style="fill: none; stroke: #b0b0b0; stroke-width: 0.8"/>
    <path d="M 145.147014 224.331073 
L 302.78561 211.545444 
L 304.132256 92.851787 
" style="fill: none; stroke: #b0b0b0; stroke-width: 0.8"/>
    <path d="M 151.025333 231.733862 
L 311.156391 218.503953 
L 312.708312 97.905097 
" style="fill: none; stroke: #b0b0b0; stroke-width: 0.8"/>
    <path d="M 157.112994 239.400281 
L 319.815957 225.702524 
L 321.586778 103.136598 
" style="fill: none; stroke: #b0b0b0; stroke-width: 0.8"/>
    <path d="M 163.421381 247.344669 
L 328.779515 233.153799 
L 330.783938 108.555885 
" style="fill: none; stroke: #b0b0b0; stroke-width: 0.8"/>
    <path d="M 169.96272 255.582423 
L 338.063357 240.871322 
L 340.317265 114.173253 
" style="fill: none; stroke: #b0b0b0; stroke-width: 0.8"/>
    <path d="M 176.750158 264.130097 
L 347.684963 248.869624 
L 350.205532 119.999764 
" style="fill: none; stroke: #b0b0b0; stroke-width: 0.8"/>
   </g>
   <g id="xtick_1">
    <g id="line2d_2">
     <path d="M 140.746917 217.076635 
L 136.90654 217.382519 
" style="fill: none; stroke: #000000; stroke-width: 0.8; stroke-linecap: square"/>
    </g>
    <g id="text_2">
     <!-- −2 -->
     <g transform="translate(118.988867 235.607454)scale(0.1 -0.1)">
      <defs>
       <path id="DejaVuSans-2212" d="M 678 2272 
L 4684 2272 
L 4684 1741 
L 678 1741 
L 678 2272 
z
" transform="scale(0.015625)"/>
       <path id="DejaVuSans-32" d="M 1228 531 
L 3431 531 
L 3431 0 
L 469 0 
L 469 531 
Q 828 903 1448 1529 
Q 2069 2156 2228 2338 
Q 2531 2678 2651 2914 
Q 2772 3150 2772 3378 
Q 2772 3750 2511 3984 
Q 2250 4219 1831 4219 
Q 1534 4219 1204 4116 
Q 875 4013 500 3803 
L 500 4441 
Q 881 4594 1212 4672 
Q 1544 4750 1819 4750 
Q 2544 4750 2975 4387 
Q 3406 4025 3406 3419 
Q 3406 3131 3298 2873 
Q 3191 2616 2906 2266 
Q 2828 2175 2409 1742 
Q 1991 1309 1228 531 
z
" transform="scale(0.015625)"/>
      </defs>
      <use xlink:href="#DejaVuSans-2212"/>
      <use xlink:href="#DejaVuSans-32" x="83.789062"/>
     </g>
    </g>
   </g>
   <g id="xtick_2">
    <g id="line2d_3">
     <path d="M 146.447091 224.225627 
L 142.544914 224.542122 
" style="fill: none; stroke: #000000; stroke-width: 0.8; stroke-linecap: square"/>
    </g>
    <g id="text_3">
     <!-- −1 -->
     <g transform="translate(124.447436 242.95204)scale(0.1 -0.1)">
      <defs>
       <path id="DejaVuSans-31" d="M 794 531 
L 1825 531 
L 1825 4091 
L 703 3866 
L 703 4441 
L 1819 4666 
L 2450 4666 
L 2450 531 
L 3481 531 
L 3481 0 
L 794 0 
L 794 531 
z
" transform="scale(0.015625)"/>
      </defs>
      <use xlink:href="#DejaVuSans-2212"/>
      <use xlink:href="#DejaVuSans-31" x="83.789062"/>
     </g>
    </g>
   </g>
   <g id="xtick_3">
    <g id="line2d_4">
     <path d="M 152.346659 231.624695 
L 148.380671 231.952362 
" style="fill: none; stroke: #000000; stroke-width: 0.8; stroke-linecap: square"/>
    </g>
    <g id="text_4">
     <!-- 0 -->
     <g transform="translate(134.286995 250.553817)scale(0.1 -0.1)">
      <defs>
       <path id="DejaVuSans-30" d="M 2034 4250 
Q 1547 4250 1301 3770 
Q 1056 3291 1056 2328 
Q 1056 1369 1301 889 
Q 1547 409 2034 409 
Q 2525 409 2770 889 
Q 3016 1369 3016 2328 
Q 3016 3291 2770 3770 
Q 2525 4250 2034 4250 
z
M 2034 4750 
Q 2819 4750 3233 4129 
Q 3647 3509 3647 2328 
Q 3647 1150 3233 529 
Q 2819 -91 2034 -91 
Q 1250 -91 836 529 
Q 422 1150 422 2328 
Q 422 3509 836 4129 
Q 1250 4750 2034 4750 
z
" transform="scale(0.015625)"/>
      </defs>
      <use xlink:href="#DejaVuSans-30"/>
     </g>
    </g>
   </g>
   <g id="xtick_4">
    <g id="line2d_5">
     <path d="M 158.45627 239.287192 
L 154.42436 239.626634 
" style="fill: none; stroke: #000000; stroke-width: 0.8; stroke-linecap: square"/>
    </g>
    <g id="text_5">
     <!-- 1 -->
     <g transform="translate(140.138076 258.426534)scale(0.1 -0.1)">
      <use xlink:href="#DejaVuSans-31"/>
     </g>
    </g>
   </g>
   <g id="xtick_5">
    <g id="line2d_6">
     <path d="M 164.787345 247.227443 
L 160.687297 247.579305 
" style="fill: none; stroke: #000000; stroke-width: 0.8; stroke-linecap: square"/>
    </g>
    <g id="text_6">
     <!-- 2 -->
     <g transform="translate(146.201483 266.584939)scale(0.1 -0.1)">
      <use xlink:href="#DejaVuSans-32"/>
     </g>
    </g>
   </g>
   <g id="xtick_6">
    <g id="line2d_7">
     <path d="M 171.352148 255.460829 
L 167.181631 255.825806 
" style="fill: none; stroke: #000000; stroke-width: 0.8; stroke-linecap: square"/>
    </g>
    <g id="text_7">
     <!-- 3 -->
     <g transform="translate(152.488988 275.04487)scale(0.1 -0.1)">
      <defs>
       <path id="DejaVuSans-33" d="M 2597 2516 
Q 3050 2419 3304 2112 
Q 3559 1806 3559 1356 
Q 3559 666 3084 287 
Q 2609 -91 1734 -91 
Q 1441 -91 1130 -33 
Q 819 25 488 141 
L 488 750 
Q 750 597 1062 519 
Q 1375 441 1716 441 
Q 2309 441 2620 675 
Q 2931 909 2931 1356 
Q 2931 1769 2642 2001 
Q 2353 2234 1838 2234 
L 1294 2234 
L 1294 2753 
L 1863 2753 
Q 2328 2753 2575 2939 
Q 2822 3125 2822 3475 
Q 2822 3834 2567 4026 
Q 2313 4219 1838 4219 
Q 1578 4219 1281 4162 
Q 984 4106 628 3988 
L 628 4550 
Q 988 4650 1302 4700 
Q 1616 4750 1894 4750 
Q 2613 4750 3031 4423 
Q 3450 4097 3450 3541 
Q 3450 3153 3228 2886 
Q 3006 2619 2597 2516 
z
" transform="scale(0.015625)"/>
      </defs>
      <use xlink:href="#DejaVuSans-33"/>
     </g>
    </g>
   </g>
   <g id="xtick_7">
    <g id="line2d_8">
     <path d="M 178.163865 264.003886 
L 173.920429 264.382726 
" style="fill: none; stroke: #000000; stroke-width: 0.8; stroke-linecap: square"/>
    </g>
    <g id="text_8">
     <!-- 4 -->
     <g transform="translate(159.013247 283.823359)scale(0.1 -0.1)">
      <defs>
       <path id="DejaVuSans-34" d="M 2419 4116 
L 825 1625 
L 2419 1625 
L 2419 4116 
z
M 2253 4666 
L 3047 4666 
L 3047 1625 
L 3713 1625 
L 3713 1100 
L 3047 1100 
L 3047 0 
L 2419 0 
L 2419 1100 
L 313 1100 
L 313 1709 
L 2253 4666 
z
" transform="scale(0.015625)"/>
      </defs>
      <use xlink:href="#DejaVuSans-34"/>
     </g>
    </g>
   </g>
  </g>
  <g id="axis3d_2">
   <g id="line2d_9">
    <path d="M 348.912333 249.889918 
L 177.616585 265.221221 
" style="fill: none; stroke: #000000; stroke-width: 0.8; stroke-linecap: square"/>
   </g>
   <g id="text_9">
    <!-- Y -->
    <g transform="translate(271.225503 293.388735)scale(0.1 -0.1)">
     <defs>
      <path id="DejaVuSans-59" d="M -13 4666 
L 666 4666 
L 1959 2747 
L 3244 4666 
L 3922 4666 
L 2272 2222 
L 2272 0 
L 1638 0 
L 1638 2222 
L -13 4666 
z
" transform="scale(0.015625)"/>
     </defs>
     <use xlink:href="#DejaVuSans-59"/>
    </g>
   </g>
   <g id="Line3DCollection_2">
    <path d="M 152.855042 95.386536 
L 154.688338 215.036475 
L 195.271119 263.641106 
" style="fill: none; stroke: #b0b0b0; stroke-width: 0.8"/>
    <path d="M 178.672992 93.928468 
L 179.955371 213.028478 
L 223.269646 261.135183 
" style="fill: none; stroke: #b0b0b0; stroke-width: 0.8"/>
    <path d="M 204.236296 92.48478 
L 204.978399 211.039873 
L 250.966375 258.656272 
" style="fill: none; stroke: #b0b0b0; stroke-width: 0.8"/>
    <path d="M 229.548703 91.055263 
L 229.760937 209.07038 
L 278.36616 256.203938 
" style="fill: none; stroke: #b0b0b0; stroke-width: 0.8"/>
    <path d="M 254.613887 89.639707 
L 254.306438 207.119724 
L 305.473751 253.777756 
" style="fill: none; stroke: #b0b0b0; stroke-width: 0.8"/>
    <path d="M 279.435453 88.237909 
L 278.618284 205.187637 
L 332.293796 251.37731 
" style="fill: none; stroke: #b0b0b0; stroke-width: 0.8"/>
   </g>
   <g id="xtick_8">
    <g id="line2d_10">
     <path d="M 194.908668 263.20701 
L 195.99807 264.51175 
" style="fill: none; stroke: #000000; stroke-width: 0.8; stroke-linecap: square"/>
    </g>
    <g id="text_10">
     <!-- −2 -->
     <g transform="translate(191.779983 286.630418)scale(0.1 -0.1)">
      <use xlink:href="#DejaVuSans-2212"/>
      <use xlink:href="#DejaVuSans-32" x="83.789062"/>
     </g>
    </g>
   </g>
   <g id="xtick_9">
    <g id="line2d_11">
     <path d="M 222.883017 260.705777 
L 224.045075 261.996408 
" style="fill: none; stroke: #000000; stroke-width: 0.8; stroke-linecap: square"/>
    </g>
    <g id="text_11">
     <!-- −1 -->
     <g transform="translate(219.975904 284.020882)scale(0.1 -0.1)">
      <use xlink:href="#DejaVuSans-2212"/>
      <use xlink:href="#DejaVuSans-31" x="83.789062"/>
     </g>
    </g>
   </g>
   <g id="xtick_10">
    <g id="line2d_12">
     <path d="M 250.55611 258.23148 
L 251.789197 259.508231 
" style="fill: none; stroke: #000000; stroke-width: 0.8; stroke-linecap: square"/>
    </g>
    <g id="text_12">
     <!-- 0 -->
     <g transform="translate(252.055385 281.439692)scale(0.1 -0.1)">
      <use xlink:href="#DejaVuSans-30"/>
     </g>
    </g>
   </g>
   <g id="xtick_11">
    <g id="line2d_13">
     <path d="M 277.932786 255.783686 
L 279.235316 257.046778 
" style="fill: none; stroke: #000000; stroke-width: 0.8; stroke-linecap: square"/>
    </g>
    <g id="text_13">
     <!-- 1 -->
     <g transform="translate(279.6437 278.88639)scale(0.1 -0.1)">
      <use xlink:href="#DejaVuSans-31"/>
     </g>
    </g>
   </g>
   <g id="xtick_12">
    <g id="line2d_14">
     <path d="M 305.017782 253.361971 
L 306.388208 254.611624 
" style="fill: none; stroke: #000000; stroke-width: 0.8; stroke-linecap: square"/>
    </g>
    <g id="text_14">
     <!-- 2 -->
     <g transform="translate(306.93555 276.360526)scale(0.1 -0.1)">
      <use xlink:href="#DejaVuSans-32"/>
     </g>
    </g>
   </g>
   <g id="xtick_13">
    <g id="line2d_15">
     <path d="M 331.815736 250.965922 
L 333.252546 252.202348 
" style="fill: none; stroke: #000000; stroke-width: 0.8; stroke-linecap: square"/>
    </g>
    <g id="text_15">
     <!-- 3 -->
     <g transform="translate(333.935689 273.861659)scale(0.1 -0.1)">
      <use xlink:href="#DejaVuSans-33"/>
     </g>
    </g>
   </g>
  </g>
  <g id="axis3d_3">
   <g id="line2d_16">
    <path d="M 348.912333 249.889918 
L 351.467512 120.743367 
" style="fill: none; stroke: #000000; stroke-width: 0.8; stroke-linecap: square"/>
   </g>
   <g id="text_16">
    <!-- Z -->
    <g transform="translate(388.835363 194.590399)scale(0.1 -0.1)">
     <defs>
      <path id="DejaVuSans-5a" d="M 359 4666 
L 4025 4666 
L 4025 4184 
L 1075 531 
L 4097 531 
L 4097 0 
L 288 0 
L 288 481 
L 3238 4134 
L 359 4134 
L 359 4666 
z
" transform="scale(0.015625)"/>
     </defs>
     <use xlink:href="#DejaVuSans-5a"/>
    </g>
   </g>
   <g id="Line3DCollection_3">
    <path d="M 348.96229 247.364912 
L 293.718175 201.703934 
L 138.728185 213.951312 
" style="fill: none; stroke: #b0b0b0; stroke-width: 0.8"/>
    <path d="M 349.363603 227.081348 
L 293.896115 183.352421 
L 138.384823 195.078349 
" style="fill: none; stroke: #b0b0b0; stroke-width: 0.8"/>
    <path d="M 349.767876 206.648158 
L 294.075232 164.879479 
L 138.03912 176.076662 
" style="fill: none; stroke: #b0b0b0; stroke-width: 0.8"/>
    <path d="M 350.175142 186.063679 
L 294.255539 146.283899 
L 137.69105 156.94493 
" style="fill: none; stroke: #b0b0b0; stroke-width: 0.8"/>
    <path d="M 350.585435 165.326226 
L 294.437046 127.564456 
L 137.34059 137.681814 
" style="fill: none; stroke: #b0b0b0; stroke-width: 0.8"/>
    <path d="M 350.998788 144.434086 
L 294.619767 108.719908 
L 136.987716 118.285954 
" style="fill: none; stroke: #b0b0b0; stroke-width: 0.8"/>
    <path d="M 351.415236 123.385523 
L 294.803713 89.748996 
L 136.632401 98.755974 
" style="fill: none; stroke: #b0b0b0; stroke-width: 0.8"/>
   </g>
   <g id="xtick_14">
    <g id="line2d_17">
     <path d="M 348.470401 246.95835 
L 349.948765 248.180264 
" style="fill: none; stroke: #000000; stroke-width: 0.8; stroke-linecap: square"/>
    </g>
    <g id="text_17">
     <!-- −3 -->
     <g transform="translate(360.57444 257.980455)scale(0.1 -0.1)">
      <use xlink:href="#DejaVuSans-2212"/>
      <use xlink:href="#DejaVuSans-33" x="83.789062"/>
     </g>
    </g>
   </g>
   <g id="xtick_15">
    <g id="line2d_18">
     <path d="M 348.869541 226.691844 
L 350.354445 227.862499 
" style="fill: none; stroke: #000000; stroke-width: 0.8; stroke-linecap: square"/>
    </g>
    <g id="text_18">
     <!-- −2 -->
     <g transform="translate(361.04871 237.570387)scale(0.1 -0.1)">
      <use xlink:href="#DejaVuSans-2212"/>
      <use xlink:href="#DejaVuSans-32" x="83.789062"/>
     </g>
    </g>
   </g>
   <g id="xtick_16">
    <g id="line2d_19">
     <path d="M 349.271622 206.275975 
L 350.763124 207.39458 
" style="fill: none; stroke: #000000; stroke-width: 0.8; stroke-linecap: square"/>
    </g>
    <g id="text_19">
     <!-- −1 -->
     <g transform="translate(361.526502 217.008734)scale(0.1 -0.1)">
      <use xlink:href="#DejaVuSans-2212"/>
      <use xlink:href="#DejaVuSans-31" x="83.789062"/>
     </g>
    </g>
   </g>
   <g id="xtick_17">
    <g id="line2d_20">
     <path d="M 349.676677 185.709085 
L 351.174834 186.774835 
" style="fill: none; stroke: #000000; stroke-width: 0.8; stroke-linecap: square"/>
    </g>
    <g id="text_20">
     <!-- 0 -->
     <g transform="translate(366.1977 196.2938)scale(0.1 -0.1)">
      <use xlink:href="#DejaVuSans-30"/>
     </g>
    </g>
   </g>
   <g id="xtick_18">
    <g id="line2d_21">
     <path d="M 350.08474 164.989492 
L 351.589609 166.001569 
" style="fill: none; stroke: #000000; stroke-width: 0.8; stroke-linecap: square"/>
    </g>
    <g id="text_21">
     <!-- 1 -->
     <g transform="translate(366.682656 175.423866)scale(0.1 -0.1)">
      <use xlink:href="#DejaVuSans-31"/>
     </g>
    </g>
   </g>
   <g id="xtick_19">
    <g id="line2d_22">
     <path d="M 350.495844 144.115489 
L 352.007484 145.073061 
" style="fill: none; stroke: #000000; stroke-width: 0.8; stroke-linecap: square"/>
    </g>
    <g id="text_22">
     <!-- 2 -->
     <g transform="translate(367.171254 154.397184)scale(0.1 -0.1)">
      <use xlink:href="#DejaVuSans-32"/>
     </g>
    </g>
   </g>
   <g id="xtick_20">
    <g id="line2d_23">
     <path d="M 350.910024 123.085344 
L 352.428493 123.987564 
" style="fill: none; stroke: #000000; stroke-width: 0.8; stroke-linecap: square"/>
    </g>
    <g id="text_23">
     <!-- 3 -->
     <g transform="translate(367.663535 133.211983)scale(0.1 -0.1)">
      <use xlink:href="#DejaVuSans-33"/>
     </g>
    </g>
   </g>
  </g>
  <g id="axes_1">
   <g id="Line3DCollection_4">
    <path d="M 245.174037 163.580065 
L 219.279007 165.413964 
" clip-path="url(#p7eda2e8e46)" style="fill: none; stroke: #008000; stroke-width: 1.5"/>
    <path d="M 245.174037 163.580065 
L 237.697664 165.62783 
" clip-path="url(#p7eda2e8e46)" style="fill: none; stroke: #008000; stroke-width: 1.5"/>
    <path d="M 245.174037 163.580065 
L 237.696548 162.590516 
" clip-path="url(#p7eda2e8e46)" style="fill: none; stroke: #008000; stroke-width: 1.5"/>
   </g>
   <g id="text_24">
    <!-- world -->
    <g transform="translate(202.758382 162.918339)scale(0.12 -0.12)">
     <defs>
      <path id="DejaVuSans-77" d="M 269 3500 
L 844 3500 
L 1563 769 
L 2278 3500 
L 2956 3500 
L 3675 769 
L 4391 3500 
L 4966 3500 
L 4050 0 
L 3372 0 
L 2619 2869 
L 1863 0 
L 1184 0 
L 269 3500 
z
" transform="scale(0.015625)"/>
      <path id="DejaVuSans-6f" d="M 1959 3097 
Q 1497 3097 1228 2736 
Q 959 2375 959 1747 
Q 959 1119 1226 758 
Q 1494 397 1959 397 
Q 2419 397 2687 759 
Q 2956 1122 2956 1747 
Q 2956 2369 2687 2733 
Q 2419 3097 1959 3097 
z
M 1959 3584 
Q 2709 3584 3137 3096 
Q 3566 2609 3566 1747 
Q 3566 888 3137 398 
Q 2709 -91 1959 -91 
Q 1206 -91 779 398 
Q 353 888 353 1747 
Q 353 2609 779 3096 
Q 1206 3584 1959 3584 
z
" transform="scale(0.015625)"/>
      <path id="DejaVuSans-72" d="M 2631 2963 
Q 2534 3019 2420 3045 
Q 2306 3072 2169 3072 
Q 1681 3072 1420 2755 
Q 1159 2438 1159 1844 
L 1159 0 
L 581 0 
L 581 3500 
L 1159 3500 
L 1159 2956 
Q 1341 3275 1631 3429 
Q 1922 3584 2338 3584 
Q 2397 3584 2469 3576 
Q 2541 3569 2628 3553 
L 2631 2963 
z
" transform="scale(0.015625)"/>
      <path id="DejaVuSans-6c" d="M 603 4863 
L 1178 4863 
L 1178 0 
L 603 0 
L 603 4863 
z
" transform="scale(0.015625)"/>
      <path id="DejaVuSans-64" d="M 2906 2969 
L 2906 4863 
L 3481 4863 
L 3481 0 
L 2906 0 
L 2906 525 
Q 2725 213 2448 61 
Q 2172 -91 1784 -91 
Q 1150 -91 751 415 
Q 353 922 353 1747 
Q 353 2572 751 3078 
Q 1150 3584 1784 3584 
Q 2172 3584 2448 3432 
Q 2725 3281 2906 2969 
z
M 947 1747 
Q 947 1113 1208 752 
Q 1469 391 1925 391 
Q 2381 391 2643 752 
Q 2906 1113 2906 1747 
Q 2906 2381 2643 2742 
Q 2381 3103 1925 3103 
Q 1469 3103 1208 2742 
Q 947 2381 947 1747 
z
" transform="scale(0.015625)"/>
     </defs>
     <use xlink:href="#DejaVuSans-77"/>
     <use xlink:href="#DejaVuSans-6f" x="81.787109"/>
     <use xlink:href="#DejaVuSans-72" x="142.96875"/>
     <use xlink:href="#DejaVuSans-6c" x="184.082031"/>
     <use xlink:href="#DejaVuSans-64" x="211.865234"/>
    </g>
   </g>
   <g id="text_25">
    <!-- Frame 1 -->
    <g transform="translate(175.26963 130.925159)scale(0.12 -0.12)">
     <defs>
      <path id="DejaVuSans-46" d="M 628 4666 
L 3309 4666 
L 3309 4134 
L 1259 4134 
L 1259 2759 
L 3109 2759 
L 3109 2228 
L 1259 2228 
L 1259 0 
L 628 0 
L 628 4666 
z
" transform="scale(0.015625)"/>
      <path id="DejaVuSans-61" d="M 2194 1759 
Q 1497 1759 1228 1600 
Q 959 1441 959 1056 
Q 959 750 1161 570 
Q 1363 391 1709 391 
Q 2188 391 2477 730 
Q 2766 1069 2766 1631 
L 2766 1759 
L 2194 1759 
z
M 3341 1997 
L 3341 0 
L 2766 0 
L 2766 531 
Q 2569 213 2275 61 
Q 1981 -91 1556 -91 
Q 1019 -91 701 211 
Q 384 513 384 1019 
Q 384 1609 779 1909 
Q 1175 2209 1959 2209 
L 2766 2209 
L 2766 2266 
Q 2766 2663 2505 2880 
Q 2244 3097 1772 3097 
Q 1472 3097 1187 3025 
Q 903 2953 641 2809 
L 641 3341 
Q 956 3463 1253 3523 
Q 1550 3584 1831 3584 
Q 2591 3584 2966 3190 
Q 3341 2797 3341 1997 
z
" transform="scale(0.015625)"/>
      <path id="DejaVuSans-6d" d="M 3328 2828 
Q 3544 3216 3844 3400 
Q 4144 3584 4550 3584 
Q 5097 3584 5394 3201 
Q 5691 2819 5691 2113 
L 5691 0 
L 5113 0 
L 5113 2094 
Q 5113 2597 4934 2840 
Q 4756 3084 4391 3084 
Q 3944 3084 3684 2787 
Q 3425 2491 3425 1978 
L 3425 0 
L 2847 0 
L 2847 2094 
Q 2847 2600 2669 2842 
Q 2491 3084 2119 3084 
Q 1678 3084 1418 2786 
Q 1159 2488 1159 1978 
L 1159 0 
L 581 0 
L 581 3500 
L 1159 3500 
L 1159 2956 
Q 1356 3278 1631 3431 
Q 1906 3584 2284 3584 
Q 2666 3584 2933 3390 
Q 3200 3197 3328 2828 
z
" transform="scale(0.015625)"/>
      <path id="DejaVuSans-65" d="M 3597 1894 
L 3597 1613 
L 953 1613 
Q 991 1019 1311 708 
Q 1631 397 2203 397 
Q 2534 397 2845 478 
Q 3156 559 3463 722 
L 3463 178 
Q 3153 47 2828 -22 
Q 2503 -91 2169 -91 
Q 1331 -91 842 396 
Q 353 884 353 1716 
Q 353 2575 817 3079 
Q 1281 3584 2069 3584 
Q 2775 3584 3186 3129 
Q 3597 2675 3597 1894 
z
M 3022 2063 
Q 3016 2534 2758 2815 
Q 2500 3097 2075 3097 
Q 1594 3097 1305 2825 
Q 1016 2553 972 2059 
L 3022 2063 
z
" transform="scale(0.015625)"/>
      <path id="DejaVuSans-20" transform="scale(0.015625)"/>
     </defs>
     <use xlink:href="#DejaVuSans-46"/>
     <use xlink:href="#DejaVuSans-72" x="50.269531"/>
     <use xlink:href="#DejaVuSans-61" x="91.382812"/>
     <use xlink:href="#DejaVuSans-6d" x="152.662109"/>
     <use xlink:href="#DejaVuSans-65" x="250.074219"/>
     <use xlink:href="#DejaVuSans-20" x="311.597656"/>
     <use xlink:href="#DejaVuSans-31" x="343.384766"/>
    </g>
   </g>
   <g id="text_26">
    <!-- Frame 2 -->
    <g transform="translate(244.504397 221.76698)scale(0.12 -0.12)">
     <use xlink:href="#DejaVuSans-46"/>
     <use xlink:href="#DejaVuSans-72" x="50.269531"/>
     <use xlink:href="#DejaVuSans-61" x="91.382812"/>
     <use xlink:href="#DejaVuSans-6d" x="152.662109"/>
     <use xlink:href="#DejaVuSans-65" x="250.074219"/>
     <use xlink:href="#DejaVuSans-20" x="311.597656"/>
     <use xlink:href="#DejaVuSans-32" x="343.384766"/>
    </g>
   </g>
   <g id="text_27">
    <!-- 3D Frame Plot -->
    <g transform="translate(193.905 35.472)scale(0.12 -0.12)">
     <defs>
      <path id="DejaVuSans-44" d="M 1259 4147 
L 1259 519 
L 2022 519 
Q 2988 519 3436 956 
Q 3884 1394 3884 2338 
Q 3884 3275 3436 3711 
Q 2988 4147 2022 4147 
L 1259 4147 
z
M 628 4666 
L 1925 4666 
Q 3281 4666 3915 4102 
Q 4550 3538 4550 2338 
Q 4550 1131 3912 565 
Q 3275 0 1925 0 
L 628 0 
L 628 4666 
z
" transform="scale(0.015625)"/>
      <path id="DejaVuSans-50" d="M 1259 4147 
L 1259 2394 
L 2053 2394 
Q 2494 2394 2734 2622 
Q 2975 2850 2975 3272 
Q 2975 3691 2734 3919 
Q 2494 4147 2053 4147 
L 1259 4147 
z
M 628 4666 
L 2053 4666 
Q 2838 4666 3239 4311 
Q 3641 3956 3641 3272 
Q 3641 2581 3239 2228 
Q 2838 1875 2053 1875 
L 1259 1875 
L 1259 0 
L 628 0 
L 628 4666 
z
" transform="scale(0.015625)"/>
      <path id="DejaVuSans-74" d="M 1172 4494 
L 1172 3500 
L 2356 3500 
L 2356 3053 
L 1172 3053 
L 1172 1153 
Q 1172 725 1289 603 
Q 1406 481 1766 481 
L 2356 481 
L 2356 0 
L 1766 0 
Q 1100 0 847 248 
Q 594 497 594 1153 
L 594 3053 
L 172 3053 
L 172 3500 
L 594 3500 
L 594 4494 
L 1172 4494 
z
" transform="scale(0.015625)"/>
     </defs>
     <use xlink:href="#DejaVuSans-33"/>
     <use xlink:href="#DejaVuSans-44" x="63.623047"/>
     <use xlink:href="#DejaVuSans-20" x="140.625"/>
     <use xlink:href="#DejaVuSans-46" x="172.412109"/>
     <use xlink:href="#DejaVuSans-72" x="222.681641"/>
     <use xlink:href="#DejaVuSans-61" x="263.794922"/>
     <use xlink:href="#DejaVuSans-6d" x="325.074219"/>
     <use xlink:href="#DejaVuSans-65" x="422.486328"/>
     <use xlink:href="#DejaVuSans-20" x="484.009766"/>
     <use xlink:href="#DejaVuSans-50" x="515.796875"/>
     <use xlink:href="#DejaVuSans-6c" x="576.099609"/>
     <use xlink:href="#DejaVuSans-6f" x="603.882812"/>
     <use xlink:href="#DejaVuSans-74" x="665.064453"/>
    </g>
   </g>
   <g id="Line3DCollection_5">
    <path d="M 219.207015 145.720441 
L 219.279007 165.413964 
" clip-path="url(#p7eda2e8e46)" style="fill: none; stroke: #0000ff; stroke-width: 1.5"/>
    <path d="M 219.207015 145.720441 
L 218.671542 150.966211 
" clip-path="url(#p7eda2e8e46)" style="fill: none; stroke: #0000ff; stroke-width: 1.5"/>
    <path d="M 219.207015 145.720441 
L 219.785828 151.917923 
" clip-path="url(#p7eda2e8e46)" style="fill: none; stroke: #0000ff; stroke-width: 1.5"/>
   </g>
   <g id="Line3DCollection_6">
    <path d="M 226.564643 171.884062 
L 219.279007 165.413964 
" clip-path="url(#p7eda2e8e46)" style="fill: none; stroke: #ff0000; stroke-width: 1.5"/>
    <path d="M 226.564643 171.884062 
L 224.43115 171.526841 
" clip-path="url(#p7eda2e8e46)" style="fill: none; stroke: #ff0000; stroke-width: 1.5"/>
    <path d="M 226.564643 171.884062 
L 224.422705 168.443587 
" clip-path="url(#p7eda2e8e46)" style="fill: none; stroke: #ff0000; stroke-width: 1.5"/>
   </g>
   <g id="legend_1">
    <g id="patch_6">
     <path d="M 358.216 54.472 
L 362.216 54.472 
Q 364.216 54.472 364.216 52.472 
L 364.216 48.472 
Q 364.216 46.472 362.216 46.472 
L 358.216 46.472 
Q 356.216 46.472 356.216 48.472 
L 356.216 52.472 
Q 356.216 54.472 358.216 54.472 
z
" style="fill: #ffffff; opacity: 0.8; stroke: #cccccc; stroke-linejoin: miter"/>
    </g>
   </g>
   <g id="Line3DCollection_7">
    <path d="M 226.469895 131.69735 
L 199.68963 133.420784 
" clip-path="url(#p7eda2e8e46)" style="fill: none; stroke: #008000; stroke-width: 1.5"/>
    <path d="M 226.469895 131.69735 
L 218.744072 133.768076 
" clip-path="url(#p7eda2e8e46)" style="fill: none; stroke: #008000; stroke-width: 1.5"/>
    <path d="M 226.469895 131.69735 
L 218.732333 130.620885 
" clip-path="url(#p7eda2e8e46)" style="fill: none; stroke: #008000; stroke-width: 1.5"/>
   </g>
   <g id="Line3DCollection_8">
    <path d="M 199.544467 113.010119 
L 199.68963 133.420784 
" clip-path="url(#p7eda2e8e46)" style="fill: none; stroke: #0000ff; stroke-width: 1.5"/>
    <path d="M 199.544467 113.010119 
L 199.040769 118.495636 
" clip-path="url(#p7eda2e8e46)" style="fill: none; stroke: #0000ff; stroke-width: 1.5"/>
    <path d="M 199.544467 113.010119 
L 200.134041 119.385367 
" clip-path="url(#p7eda2e8e46)" style="fill: none; stroke: #0000ff; stroke-width: 1.5"/>
   </g>
   <g id="Line3DCollection_9">
    <path d="M 268.818305 244.422665 
L 268.924397 224.262605 
" clip-path="url(#p7eda2e8e46)" style="fill: none; stroke: #0000ff; stroke-width: 1.5"/>
    <path d="M 268.818305 244.422665 
L 269.497363 239.212779 
" clip-path="url(#p7eda2e8e46)" style="fill: none; stroke: #0000ff; stroke-width: 1.5"/>
    <path d="M 268.818305 244.422665 
L 268.202398 237.980626 
" clip-path="url(#p7eda2e8e46)" style="fill: none; stroke: #0000ff; stroke-width: 1.5"/>
   </g>
   <g id="Line3DCollection_10">
    <path d="M 241.925009 226.505305 
L 268.924397 224.262605 
" clip-path="url(#p7eda2e8e46)" style="fill: none; stroke: #008000; stroke-width: 1.5"/>
    <path d="M 241.925009 226.505305 
L 249.77539 227.429038 
" clip-path="url(#p7eda2e8e46)" style="fill: none; stroke: #008000; stroke-width: 1.5"/>
    <path d="M 241.925009 226.505305 
L 249.781093 224.276019 
" clip-path="url(#p7eda2e8e46)" style="fill: none; stroke: #008000; stroke-width: 1.5"/>
   </g>
   <g id="Line3DCollection_11">
    <path d="M 206.842186 139.505376 
L 199.68963 133.420784 
" clip-path="url(#p7eda2e8e46)" style="fill: none; stroke: #ff0000; stroke-width: 1.5"/>
    <path d="M 206.842186 139.505376 
L 204.752656 139.31722 
" clip-path="url(#p7eda2e8e46)" style="fill: none; stroke: #ff0000; stroke-width: 1.5"/>
    <path d="M 206.842186 139.505376 
L 204.732774 136.12064 
" clip-path="url(#p7eda2e8e46)" style="fill: none; stroke: #ff0000; stroke-width: 1.5"/>
   </g>
   <g id="Line3DCollection_12">
    <path d="M 277.441199 232.09947 
L 268.924397 224.262605 
" clip-path="url(#p7eda2e8e46)" style="fill: none; stroke: #ff0000; stroke-width: 1.5"/>
    <path d="M 277.441199 232.09947 
L 274.930824 231.388373 
" clip-path="url(#p7eda2e8e46)" style="fill: none; stroke: #ff0000; stroke-width: 1.5"/>
    <path d="M 277.441199 232.09947 
L 274.951031 228.208323 
" clip-path="url(#p7eda2e8e46)" style="fill: none; stroke: #ff0000; stroke-width: 1.5"/>
   </g>
  </g>
 </g>
 <defs>
  <clipPath id="p7eda2e8e46">
   <rect x="103.104" y="41.472" width="266.112" height="266.112"/>
  </clipPath>
 </defs>
</svg>
