<?xml version="1.0" encoding="utf-8"?>
<!-- Generator: Adobe Illustrator 13.0.2, SVG Export Plug-In . SVG Version: 6.00 Build 14948)  -->
<!DOCTYPE svg PUBLIC "-//W3C//DTD SVG 1.1//EN" "http://www.w3.org/Graphics/SVG/1.1/DTD/svg11.dtd">
<svg version="1.1" id="Ebene_1" xmlns="http://www.w3.org/2000/svg" xmlns:xlink="http://www.w3.org/1999/xlink" x="0px" y="0px"
	 width="751.403px" height="538.676px" viewBox="0 0 751.403 538.676" enable-background="new 0 0 751.403 538.676"
	 xml:space="preserve">
<g>
	<path fill="none" stroke="#000000" stroke-miterlimit="10" d="M217.491,190.831l-0.459,6.252 M335.549,241.282l7.468-14.122
		 M303.568,342.063l-19.904-22.376 M368.258,262.02l7.308-54.845 M374.581,195.76l9.924-3.498 M401.688,203.012l0.927,8.55
		 M219.909,187.375 M271.776,264.215 M291.315,253.477 M329.504,266.678l1.465-11.804 M262.754,238.474l5.604,13.847
		 M235.663,189.458 M239.741,270.312l-12.607-14.171 M343.017,227.16l9.699-13.173 M374.688,196.906l-0.475-0.896 M398.372,196.455
		l3.316,6.558 M384.505,192.262l8.089,0.382 M319.984,91.312 M256.019,225.218l7.713,32.447 M218.323,205.396l-1.292-8.313
		 M219.909,187.375l4.445,0.003 M255.391,223.982l-8.397-13.601 M330.969,254.874l4.58-13.592 M219.909,187.375l-2.418,3.456
		 M389.162,276.868l-20.904-14.848 M406.557,263.613l-17.396,13.254 M224.354,187.378l6.325,3.907 M401.359,221.384l-25.793-14.21
		 M243.634,205.951l-22.536,9.122 M263.732,257.665l-23.991,12.647 M389.162,276.868l12.197-55.483 M221.099,215.072l-2.776-9.677
		 M268.358,252.321l3.418,11.894 M402.615,211.562l-1.256,9.822 M230.679,191.285l7.78,7.839 M271.776,264.215l11.888,55.472
		 M329.823,322.066l-26.254,19.997 M329.504,266.678l0.318,55.388 M374.688,196.906l0.878,10.268 M352.715,213.987l10.91-10.815
		 M282.904,192.672l-104.966-71.335 M227.134,256.141l-49.195-134.804 M406.557,263.613l37.279-136.982 M443.836,126.631
		L319.984,91.312 M177.938,121.337l142.045-30.025 M282.904,192.672l23.615-9.69 M246.993,210.381l-3.359-4.431 M243.634,205.951
		l-5.175-6.827 M363.625,203.172l10.588-7.162 M374.213,196.01l0.368-0.25 M392.594,192.644l3.358,2.215 M395.953,194.859
		l2.419,1.596 M239.741,270.312l-5.888-17.448 M233.853,252.864l-12.754-37.792 M262.754,238.474l-6.736-13.256 M256.019,225.218
		l-0.628-1.236 M303.568,342.063l-4.543-32.848 M306.519,182.981l35.443-14.545 M299.025,309.215l-7.71-55.738 M291.315,253.477
		l-8.411-60.805 M341.962,168.436l41.079-16.858 M383.042,151.578l60.795-24.947 M282.904,192.672l-104.966-71.335 M227.134,256.141
		l-49.195-134.804 M282.904,192.672l20.664,149.391 M443.836,126.631l-160.932,66.041 M406.557,263.613l37.279-136.982
		 M319.984,91.312l-142.045,30.025 M319.984,91.312l123.853,35.319"/>
</g>
<g>
	<line fill="none" stroke="#00FF00" stroke-miterlimit="10" x1="227.134" y1="256.141" x2="1.312" y2="2.287"/>
	<line fill="none" stroke="#FF0000" stroke-miterlimit="10" x1="177.938" y1="121.337" x2="749.638" y2="0.489"/>
	<line fill="none" stroke="#0000FF" stroke-miterlimit="10" x1="177.938" y1="121.337" x2="329.437" y2="536.468"/>
	<line fill="none" stroke="#0000FF" stroke-miterlimit="10" x1="443.835" y1="126.63" x2="332.245" y2="536.709"/>
	<line fill="none" stroke="#FF0000" stroke-miterlimit="10" x1="751.213" y1="0.492" x2="282.904" y2="192.672"/>
	<line fill="none" stroke="#FF0000" stroke-miterlimit="10" x1="750.088" y1="1.943" x2="406.557" y2="263.613"/>
	<line fill="none" stroke="#00FF00" stroke-miterlimit="10" x1="1.91" y1="0.601" x2="443.835" y2="126.63"/>
	<line fill="none" stroke="#00FF00" stroke-miterlimit="10" x1="282.904" y1="192.672" x2="0.281" y2="0.603"/>
	<line fill="none" stroke="#0000FF" stroke-miterlimit="10" x1="282.904" y1="192.672" x2="330.755" y2="538.608"/>
	<line fill="none" stroke="#FF0000" stroke-miterlimit="10" x1="406.557" y1="263.613" x2="303.568" y2="342.063"/>
	<line fill="none" stroke="#00FF00" stroke-miterlimit="10" x1="303.568" y1="342.063" x2="227.134" y2="256.141"/>
</g>
</svg>
